<svg xmlns="http://www.w3.org/2000/svg" width="148" height="212" viewBox="0 0 148 212" fill="none">
  <title>Petra, Jordan postage stamp</title>
  <desc>A cream, perforated postage stamp with a sandstone engraving of Petra's Treasury.</desc>
  <defs>
    <mask id="perforated-paper" maskUnits="userSpaceOnUse" x="0" y="0" width="148" height="212">
      <rect x="4" y="4" width="140" height="204" fill="white"/>
      <g fill="black">
        <circle cx="14" cy="4" r="3.2"/><circle cx="24" cy="4" r="3.2"/><circle cx="34" cy="4" r="3.2"/><circle cx="44" cy="4" r="3.2"/><circle cx="54" cy="4" r="3.2"/><circle cx="64" cy="4" r="3.2"/><circle cx="74" cy="4" r="3.2"/><circle cx="84" cy="4" r="3.2"/><circle cx="94" cy="4" r="3.2"/><circle cx="104" cy="4" r="3.2"/><circle cx="114" cy="4" r="3.2"/><circle cx="124" cy="4" r="3.2"/><circle cx="134" cy="4" r="3.2"/>
        <circle cx="14" cy="208" r="3.2"/><circle cx="24" cy="208" r="3.2"/><circle cx="34" cy="208" r="3.2"/><circle cx="44" cy="208" r="3.2"/><circle cx="54" cy="208" r="3.2"/><circle cx="64" cy="208" r="3.2"/><circle cx="74" cy="208" r="3.2"/><circle cx="84" cy="208" r="3.2"/><circle cx="94" cy="208" r="3.2"/><circle cx="104" cy="208" r="3.2"/><circle cx="114" cy="208" r="3.2"/><circle cx="124" cy="208" r="3.2"/><circle cx="134" cy="208" r="3.2"/>
        <circle cx="4" cy="14" r="3.2"/><circle cx="4" cy="24" r="3.2"/><circle cx="4" cy="34" r="3.2"/><circle cx="4" cy="44" r="3.2"/><circle cx="4" cy="54" r="3.2"/><circle cx="4" cy="64" r="3.2"/><circle cx="4" cy="74" r="3.2"/><circle cx="4" cy="84" r="3.2"/><circle cx="4" cy="94" r="3.2"/><circle cx="4" cy="104" r="3.2"/><circle cx="4" cy="114" r="3.2"/><circle cx="4" cy="124" r="3.2"/><circle cx="4" cy="134" r="3.2"/><circle cx="4" cy="144" r="3.2"/><circle cx="4" cy="154" r="3.2"/><circle cx="4" cy="164" r="3.2"/><circle cx="4" cy="174" r="3.2"/><circle cx="4" cy="184" r="3.2"/><circle cx="4" cy="194" r="3.2"/><circle cx="4" cy="204" r="3.2"/>
        <circle cx="144" cy="14" r="3.2"/><circle cx="144" cy="24" r="3.2"/><circle cx="144" cy="34" r="3.2"/><circle cx="144" cy="44" r="3.2"/><circle cx="144" cy="54" r="3.2"/><circle cx="144" cy="64" r="3.2"/><circle cx="144" cy="74" r="3.2"/><circle cx="144" cy="84" r="3.2"/><circle cx="144" cy="94" r="3.2"/><circle cx="144" cy="104" r="3.2"/><circle cx="144" cy="114" r="3.2"/><circle cx="144" cy="124" r="3.2"/><circle cx="144" cy="134" r="3.2"/><circle cx="144" cy="144" r="3.2"/><circle cx="144" cy="154" r="3.2"/><circle cx="144" cy="164" r="3.2"/><circle cx="144" cy="174" r="3.2"/><circle cx="144" cy="184" r="3.2"/><circle cx="144" cy="194" r="3.2"/><circle cx="144" cy="204" r="3.2"/>
      </g>
    </mask>
    <clipPath id="engraving-panel"><rect x="19" y="36" width="110" height="135"/></clipPath>
  </defs>
  <g mask="url(#perforated-paper)">
    <rect x="4" y="4" width="140" height="204" fill="#f8f5ef"/>
    <rect x="12.5" y="12.5" width="123" height="187" stroke="#8b6f47" stroke-width=".75"/>
    <rect x="16" y="16" width="116" height="180" stroke="#8b6f47" stroke-width=".35" opacity=".55"/>
    <text x="74" y="29" text-anchor="middle" font-family="Georgia, 'Times New Roman', serif" font-size="8.5" letter-spacing="2.4" fill="#8b6f47">JORDAN</text>
    <path d="M24 34H124" stroke="#8b6f47" stroke-width=".5" opacity=".65"/>
    <g clip-path="url(#engraving-panel)">
      <path d="M19 36H36L33 50L41 66L36 78L43 96L37 117L40 138L31 158L19 164ZM129 36H118L112 54L117 66L107 87L113 110L110 129L116 150L129 164Z" fill="#cfb899" opacity=".22"/>
      <g stroke="#a88b65" stroke-width=".65" stroke-linecap="round" stroke-linejoin="round" opacity=".65">
        <path d="M32 37L29 50L37 66L31 79L38 94L32 114L35 135L27 156M23 44L25 60L21 74L27 89L23 111L27 129L21 148M35 42L34 49M35 57L39 65M33 83L37 92M30 119L32 133M118 38L112 53L117 66L108 87L113 110L109 129L116 150M125 42L119 57L125 72L118 90L123 111L119 133L127 155M117 80L113 87M117 114L114 128"/>
        <path d="M22 166L39 162L58 165L78 163L98 164L119 161L131 165M18 170L39 168L63 170L90 168L125 170"/>
      </g>
      <path d="M35 102H113V158H35Z" fill="#d6c1a5" opacity=".28"/>
      <path d="M39 80H59V101H39ZM89 80H109V101H89Z" fill="#c5aa86" opacity=".23"/>
      <g stroke="#8b6f47" stroke-width="1" stroke-linecap="round" stroke-linejoin="round">
        <!-- Upper broken pediments and the Treasury's central tholos. -->
        <path d="M34 79L50 64L60 77M37 80L50 68L56 76M88 77L98 64L114 79M92 76L98 68L111 80"/>
        <path d="M36 81H59M89 81H112M35 101H113M35 98H113"/>
        <path d="M40 82V96M45 82V96M54 82V96M94 82V96M103 82V96M108 82V96"/>
        <path d="M38 96H47M52 96H58M90 96H96M101 96H110" stroke-width=".7"/>
        <path d="M60 64Q74 51 88 64M63 63Q74 56 85 63M60 65H88M62 68H86M61 95H87M59 98H89"/>
        <path d="M63 70V92M68 70V92M80 70V92M85 70V92M62 70H69M79 70H86M62 92H69M79 92H86"/>
        <path d="M71 92V78Q74 73 77 78V92" fill="#8b6f47" fill-opacity=".16" stroke-width=".6"/>
        <path d="M72 55V52M76 55V52M71 52H77L76 49H72ZM74 49V45M72.5 45H75.5M73 43H75" stroke-width=".8"/>
        <!-- Main pediment and six columns. -->
        <path d="M32 114L74 94L116 114ZM39 111L74 98L109 111M32 117H116M33 120H115"/>
        <path d="M69 109L74 104L79 109M72 109H76" stroke-width=".6" opacity=".75"/>
        <path d="M39 122V154M44 122V154M52 122V154M57 122V154M65 122V154M70 122V154M78 122V154M83 122V154M91 122V154M96 122V154M104 122V154M109 122V154"/>
        <path d="M37 121H46M50 121H59M63 121H72M76 121H85M89 121H98M102 121H111M37 154H46M50 154H59M63 154H72M76 154H85M89 154H98M102 154H111"/>
        <path d="M34 157H114M31 160H117M28 163H120"/>
        <path d="M72 151V129H77V151" fill="#8b6f47" fill-opacity=".36" stroke-width=".65"/>
        <path d="M46.5 151V136H50V151M98.5 151V136H102V151" fill="#8b6f47" fill-opacity=".16" stroke-width=".55"/>
      </g>
      <g stroke="#8b6f47" stroke-width=".35" opacity=".45">
        <path d="M41 125V151M54 125V151M67 125V151M81 125V151M94 125V151M107 125V151M41 85V94M55 85V94M95 85V94M107 85V94M65 73V89M83 73V89"/>
        <path d="M36 104H51M35 107H45M98 104H112M104 107H113M47 126H51M59 126H63M85 126H89M97 126H101M47 131H51M59 131H63M85 131H89M97 131H101M34 165H61M79 165H108"/>
      </g>
    </g>
    <path d="M24 175H124" stroke="#8b6f47" stroke-width=".5" opacity=".65"/>
    <text x="74" y="188" text-anchor="middle" font-family="Georgia, 'Times New Roman', serif" font-size="10" letter-spacing="3.5" fill="#8b6f47">PETRA</text>
  </g>
</svg>
